<svg width="1024" height="753" viewBox="0 0 1024 753" fill="none" xmlns="http://www.w3.org/2000/svg">
<g opacity="0.2" filter="url(#filter0_f_175_198)">
<ellipse cx="532.5" cy="239" rx="670.5" ry="350" fill="#35875D"/>
</g>
<path d="M53.0349 475C54.5302 475 55.6622 475.63 56.4308 476.891C57.2134 478.138 57.6047 479.953 57.6047 482.336C57.6047 484.719 57.2134 486.541 56.4308 487.802C55.6622 489.063 54.5302 489.693 53.0349 489.693C51.5536 489.693 50.4216 489.063 49.639 487.802C48.8564 486.541 48.4651 484.719 48.4651 482.336C48.4651 479.967 48.8564 478.152 49.639 476.891C50.4216 475.63 51.5536 475 53.0349 475ZM49.9534 482.336C49.9534 484.026 50.1072 485.35 50.4146 486.306L55.0683 477.099C54.5791 476.448 53.9013 476.122 53.0349 476.122C52.0706 476.122 51.316 476.635 50.771 477.66C50.2259 478.672 49.9534 480.23 49.9534 482.336ZM53.0349 488.55C54.0131 488.55 54.7748 488.044 55.3198 487.033C55.8648 486.008 56.1373 484.442 56.1373 482.336C56.1373 480.549 55.9627 479.163 55.6133 478.18L50.9596 487.469C51.4627 488.19 52.1545 488.55 53.0349 488.55Z" fill="url(#paint0_linear_175_198)" fill-opacity="0.6"/>
<path d="M54.2926 512.135H57.3741V513.236H49.3874V512.135H52.9511V500.455L49.5551 502.471L48.9682 501.536L53.1607 498.959H54.2926V512.135Z" fill="url(#paint1_linear_175_198)" fill-opacity="0.6"/>
<path d="M53.0349 522.502C54.5302 522.502 55.6622 523.133 56.4308 524.393C57.2134 525.64 57.6047 527.455 57.6047 529.838C57.6047 532.221 57.2134 534.043 56.4308 535.304C55.6622 536.565 54.5302 537.195 53.0349 537.195C51.5536 537.195 50.4216 536.565 49.639 535.304C48.8564 534.043 48.4651 532.221 48.4651 529.838C48.4651 527.469 48.8564 525.654 49.639 524.393C50.4216 523.133 51.5536 522.502 53.0349 522.502ZM49.9534 529.838C49.9534 531.529 50.1072 532.852 50.4146 533.808L55.0683 524.601C54.5791 523.95 53.9013 523.624 53.0349 523.624C52.0706 523.624 51.316 524.137 50.771 525.162C50.2259 526.174 49.9534 527.732 49.9534 529.838ZM53.0349 536.052C54.0131 536.052 54.7748 535.546 55.3198 534.535C55.8648 533.51 56.1373 531.944 56.1373 529.838C56.1373 528.051 55.9627 526.665 55.6133 525.682L50.9596 534.971C51.4627 535.692 52.1545 536.052 53.0349 536.052Z" fill="url(#paint2_linear_175_198)" fill-opacity="0.6"/>
<path d="M54.2926 559.637H57.3741V560.738H49.3874V559.637H52.9511V547.957L49.5551 549.973L48.9682 549.038L53.1607 546.461H54.2926V559.637Z" fill="url(#paint3_linear_175_198)" fill-opacity="0.6"/>
<path d="M54.2926 583.388H57.3741V584.489H49.3874V583.388H52.9511V571.708L49.5551 573.724L48.9682 572.789L53.1607 570.212H54.2926V583.388Z" fill="url(#paint4_linear_175_198)" fill-opacity="0.6"/>
<path d="M53.0349 593.755C54.5302 593.755 55.6622 594.386 56.4308 595.646C57.2134 596.893 57.6047 598.708 57.6047 601.091C57.6047 603.474 57.2134 605.296 56.4308 606.557C55.6622 607.818 54.5302 608.448 53.0349 608.448C51.5536 608.448 50.4216 607.818 49.639 606.557C48.8564 605.296 48.4651 603.474 48.4651 601.091C48.4651 598.722 48.8564 596.907 49.639 595.646C50.4216 594.386 51.5536 593.755 53.0349 593.755ZM49.9534 601.091C49.9534 602.782 50.1072 604.105 50.4146 605.061L55.0683 595.854C54.5791 595.203 53.9013 594.878 53.0349 594.878C52.0706 594.878 51.316 595.39 50.771 596.415C50.2259 597.427 49.9534 598.985 49.9534 601.091ZM53.0349 607.305C54.0131 607.305 54.7748 606.8 55.3198 605.788C55.8648 604.763 56.1373 603.197 56.1373 601.091C56.1373 599.304 55.9627 597.919 55.6133 596.935L50.9596 606.225C51.4627 606.945 52.1545 607.305 53.0349 607.305Z" fill="url(#paint5_linear_175_198)" fill-opacity="0.6"/>
<path d="M54.2926 630.89H57.3741V631.992H49.3874V630.89H52.9511V619.21L49.5551 621.226L48.9682 620.291L53.1607 617.714H54.2926V630.89Z" fill="url(#paint6_linear_175_198)" fill-opacity="0.6"/>
<path d="M53.0349 641.257C54.5302 641.257 55.6622 641.888 56.4308 643.149C57.2134 644.396 57.6047 646.211 57.6047 648.594C57.6047 650.977 57.2134 652.798 56.4308 654.059C55.6622 655.32 54.5302 655.95 53.0349 655.95C51.5536 655.95 50.4216 655.32 49.639 654.059C48.8564 652.798 48.4651 650.977 48.4651 648.594C48.4651 646.224 48.8564 644.409 49.639 643.149C50.4216 641.888 51.5536 641.257 53.0349 641.257ZM49.9534 648.594C49.9534 650.284 50.1072 651.607 50.4146 652.563L55.0683 643.356C54.5791 642.705 53.9013 642.38 53.0349 642.38C52.0706 642.38 51.316 642.892 50.771 643.918C50.2259 644.929 49.9534 646.488 49.9534 648.594ZM53.0349 654.807C54.0131 654.807 54.7748 654.302 55.3198 653.29C55.8648 652.265 56.1373 650.699 56.1373 648.594C56.1373 646.806 55.9627 645.421 55.6133 644.437L50.9596 653.727C51.4627 654.447 52.1545 654.807 53.0349 654.807Z" fill="url(#paint7_linear_175_198)" fill-opacity="0.6"/>
<path d="M53.0349 665.008C54.5302 665.008 55.6622 665.639 56.4308 666.9C57.2134 668.147 57.6047 669.962 57.6047 672.345C57.6047 674.728 57.2134 676.549 56.4308 677.81C55.6622 679.071 54.5302 679.701 53.0349 679.701C51.5536 679.701 50.4216 679.071 49.639 677.81C48.8564 676.549 48.4651 674.728 48.4651 672.345C48.4651 669.975 48.8564 668.16 49.639 666.9C50.4216 665.639 51.5536 665.008 53.0349 665.008ZM49.9534 672.345C49.9534 674.035 50.1072 675.358 50.4146 676.314L55.0683 667.107C54.5791 666.456 53.9013 666.131 53.0349 666.131C52.0706 666.131 51.316 666.643 50.771 667.669C50.2259 668.68 49.9534 670.239 49.9534 672.345ZM53.0349 678.558C54.0131 678.558 54.7748 678.053 55.3198 677.041C55.8648 676.016 56.1373 674.451 56.1373 672.345C56.1373 670.557 55.9627 669.172 55.6133 668.188L50.9596 677.478C51.4627 678.198 52.1545 678.558 53.0349 678.558Z" fill="url(#paint8_linear_175_198)" fill-opacity="0.6"/>
<path d="M54.2926 702.143H57.3741V703.245H49.3874V702.143H52.9511V690.464L49.5551 692.48L48.9682 691.544L53.1607 688.967H54.2926V702.143Z" fill="url(#paint9_linear_175_198)" fill-opacity="0.6"/>
<path d="M53.0349 712.511C54.5302 712.511 55.6622 713.141 56.4308 714.402C57.2134 715.649 57.6047 717.464 57.6047 719.847C57.6047 722.23 57.2134 724.052 56.4308 725.312C55.6622 726.573 54.5302 727.204 53.0349 727.204C51.5536 727.204 50.4216 726.573 49.639 725.312C48.8564 724.052 48.4651 722.23 48.4651 719.847C48.4651 717.478 48.8564 715.663 49.639 714.402C50.4216 713.141 51.5536 712.511 53.0349 712.511ZM49.9534 719.847C49.9534 721.537 50.1072 722.86 50.4146 723.816L55.0683 714.61C54.5791 713.958 53.9013 713.633 53.0349 713.633C52.0706 713.633 51.316 714.145 50.771 715.171C50.2259 716.182 49.9534 717.741 49.9534 719.847ZM53.0349 726.061C54.0131 726.061 54.7748 725.555 55.3198 724.543C55.8648 723.518 56.1373 721.953 56.1373 719.847C56.1373 718.059 55.9627 716.674 55.6133 715.69L50.9596 724.98C51.4627 725.7 52.1545 726.061 53.0349 726.061Z" fill="url(#paint10_linear_175_198)" fill-opacity="0.6"/>
<path d="M54.2926 749.645H57.3741V750.747H49.3874V749.645H52.9511V737.966L49.5551 739.982L48.9682 739.046L53.1607 736.469H54.2926V749.645Z" fill="url(#paint11_linear_175_198)" fill-opacity="0.6"/>
<path d="M54.2926 773.396H57.3741V774.498H49.3874V773.396H52.9511V761.717L49.5551 763.733L48.9682 762.798L53.1607 760.221H54.2926V773.396Z" fill="url(#paint12_linear_175_198)" fill-opacity="0.6"/>
<path d="M91.9651 522.502C93.4604 522.502 94.5924 523.133 95.361 524.393C96.1436 525.64 96.5349 527.455 96.5349 529.838C96.5349 532.221 96.1436 534.043 95.361 535.304C94.5924 536.565 93.4604 537.195 91.9651 537.195C90.4838 537.195 89.3518 536.565 88.5692 535.304C87.7866 534.043 87.3953 532.221 87.3953 529.838C87.3953 527.469 87.7866 525.654 88.5692 524.393C89.3518 523.133 90.4838 522.502 91.9651 522.502ZM88.8836 529.838C88.8836 531.529 89.0374 532.852 89.3448 533.808L93.9985 524.601C93.5093 523.95 92.8315 523.624 91.9651 523.624C91.0008 523.624 90.2462 524.137 89.7012 525.162C89.1561 526.174 88.8836 527.732 88.8836 529.838ZM91.9651 536.052C92.9433 536.052 93.705 535.546 94.25 534.535C94.795 533.51 95.0675 531.944 95.0675 529.838C95.0675 528.051 94.8928 526.665 94.5435 525.682L89.8898 534.971C90.3929 535.692 91.0847 536.052 91.9651 536.052Z" fill="url(#paint13_linear_175_198)" fill-opacity="0.6"/>
<path d="M93.2228 559.637H96.3043V560.738H88.3176V559.637H91.8812V547.957L88.4853 549.973L87.8984 549.038L92.0909 546.461H93.2228V559.637Z" fill="url(#paint14_linear_175_198)" fill-opacity="0.6"/>
<path d="M91.9651 570.004C93.4604 570.004 94.5924 570.635 95.361 571.895C96.1436 573.142 96.5349 574.957 96.5349 577.34C96.5349 579.723 96.1436 581.545 95.361 582.806C94.5924 584.067 93.4604 584.697 91.9651 584.697C90.4838 584.697 89.3518 584.067 88.5692 582.806C87.7866 581.545 87.3953 579.723 87.3953 577.34C87.3953 574.971 87.7866 573.156 88.5692 571.895C89.3518 570.635 90.4838 570.004 91.9651 570.004ZM88.8836 577.34C88.8836 579.031 89.0374 580.354 89.3448 581.31L93.9985 572.103C93.5093 571.452 92.8315 571.126 91.9651 571.126C91.0008 571.126 90.2462 571.639 89.7012 572.664C89.1561 573.676 88.8836 575.234 88.8836 577.34ZM91.9651 583.554C92.9433 583.554 93.705 583.049 94.25 582.037C94.795 581.012 95.0675 579.446 95.0675 577.34C95.0675 575.553 94.8928 574.168 94.5435 573.184L89.8898 582.474C90.3929 583.194 91.0847 583.554 91.9651 583.554Z" fill="url(#paint15_linear_175_198)" fill-opacity="0.6"/>
<path d="M91.9651 593.755C93.4604 593.755 94.5924 594.386 95.361 595.646C96.1436 596.893 96.5349 598.708 96.5349 601.091C96.5349 603.474 96.1436 605.296 95.361 606.557C94.5924 607.818 93.4604 608.448 91.9651 608.448C90.4838 608.448 89.3518 607.818 88.5692 606.557C87.7866 605.296 87.3953 603.474 87.3953 601.091C87.3953 598.722 87.7866 596.907 88.5692 595.646C89.3518 594.386 90.4838 593.755 91.9651 593.755ZM88.8836 601.091C88.8836 602.782 89.0374 604.105 89.3448 605.061L93.9985 595.854C93.5093 595.203 92.8315 594.878 91.9651 594.878C91.0008 594.878 90.2462 595.39 89.7012 596.415C89.1561 597.427 88.8836 598.985 88.8836 601.091ZM91.9651 607.305C92.9433 607.305 93.705 606.8 94.25 605.788C94.795 604.763 95.0675 603.197 95.0675 601.091C95.0675 599.304 94.8928 597.919 94.5435 596.935L89.8898 606.225C90.3929 606.945 91.0847 607.305 91.9651 607.305Z" fill="url(#paint16_linear_175_198)" fill-opacity="0.6"/>
<path d="M93.2228 630.89H96.3043V631.992H88.3176V630.89H91.8812V619.21L88.4853 621.226L87.8984 620.291L92.0909 617.714H93.2228V630.89Z" fill="url(#paint17_linear_175_198)" fill-opacity="0.6"/>
<path d="M91.9651 641.257C93.4604 641.257 94.5924 641.888 95.361 643.149C96.1436 644.396 96.5349 646.211 96.5349 648.594C96.5349 650.977 96.1436 652.798 95.361 654.059C94.5924 655.32 93.4604 655.95 91.9651 655.95C90.4838 655.95 89.3518 655.32 88.5692 654.059C87.7866 652.798 87.3953 650.977 87.3953 648.594C87.3953 646.224 87.7866 644.409 88.5692 643.149C89.3518 641.888 90.4838 641.257 91.9651 641.257ZM88.8836 648.594C88.8836 650.284 89.0374 651.607 89.3448 652.563L93.9985 643.356C93.5093 642.705 92.8315 642.38 91.9651 642.38C91.0008 642.38 90.2462 642.892 89.7012 643.918C89.1561 644.929 88.8836 646.488 88.8836 648.594ZM91.9651 654.807C92.9433 654.807 93.705 654.302 94.25 653.29C94.795 652.265 95.0675 650.699 95.0675 648.594C95.0675 646.806 94.8928 645.421 94.5435 644.437L89.8898 653.727C90.3929 654.447 91.0847 654.807 91.9651 654.807Z" fill="url(#paint18_linear_175_198)" fill-opacity="0.6"/>
<path d="M93.2228 678.392H96.3043V679.494H88.3176V678.392H91.8812V666.713L88.4853 668.728L87.8984 667.793L92.0909 665.216H93.2228V678.392Z" fill="url(#paint19_linear_175_198)" fill-opacity="0.6"/>
<path d="M91.9651 688.76C93.4604 688.76 94.5924 689.39 95.361 690.651C96.1436 691.898 96.5349 693.713 96.5349 696.096C96.5349 698.479 96.1436 700.301 95.361 701.561C94.5924 702.822 93.4604 703.453 91.9651 703.453C90.4838 703.453 89.3518 702.822 88.5692 701.561C87.7866 700.301 87.3953 698.479 87.3953 696.096C87.3953 693.726 87.7866 691.911 88.5692 690.651C89.3518 689.39 90.4838 688.76 91.9651 688.76ZM88.8836 696.096C88.8836 697.786 89.0374 699.109 89.3448 700.065L93.9985 690.859C93.5093 690.207 92.8315 689.882 91.9651 689.882C91.0008 689.882 90.2462 690.394 89.7012 691.42C89.1561 692.431 88.8836 693.99 88.8836 696.096ZM91.9651 702.31C92.9433 702.31 93.705 701.804 94.25 700.792C94.795 699.767 95.0675 698.202 95.0675 696.096C95.0675 694.308 94.8928 692.923 94.5435 691.939L89.8898 701.229C90.3929 701.949 91.0847 702.31 91.9651 702.31Z" fill="url(#paint20_linear_175_198)" fill-opacity="0.6"/>
<path d="M91.9651 712.511C93.4604 712.511 94.5924 713.141 95.361 714.402C96.1436 715.649 96.5349 717.464 96.5349 719.847C96.5349 722.23 96.1436 724.052 95.361 725.312C94.5924 726.573 93.4604 727.204 91.9651 727.204C90.4838 727.204 89.3518 726.573 88.5692 725.312C87.7866 724.052 87.3953 722.23 87.3953 719.847C87.3953 717.478 87.7866 715.663 88.5692 714.402C89.3518 713.141 90.4838 712.511 91.9651 712.511ZM88.8836 719.847C88.8836 721.537 89.0374 722.86 89.3448 723.816L93.9985 714.61C93.5093 713.958 92.8315 713.633 91.9651 713.633C91.0008 713.633 90.2462 714.145 89.7012 715.171C89.1561 716.182 88.8836 717.741 88.8836 719.847ZM91.9651 726.061C92.9433 726.061 93.705 725.555 94.25 724.543C94.795 723.518 95.0675 721.953 95.0675 719.847C95.0675 718.059 94.8928 716.674 94.5435 715.69L89.8898 724.98C90.3929 725.7 91.0847 726.061 91.9651 726.061Z" fill="url(#paint21_linear_175_198)" fill-opacity="0.6"/>
<path d="M93.2228 749.645H96.3043V750.747H88.3176V749.645H91.8812V737.966L88.4853 739.982L87.8984 739.046L92.0909 736.469H93.2228V749.645Z" fill="url(#paint22_linear_175_198)" fill-opacity="0.6"/>
<path d="M91.9651 760.013C93.4604 760.013 94.5924 760.643 95.361 761.904C96.1436 763.151 96.5349 764.966 96.5349 767.349C96.5349 769.732 96.1436 771.554 95.361 772.815C94.5924 774.075 93.4604 774.706 91.9651 774.706C90.4838 774.706 89.3518 774.075 88.5692 772.815C87.7866 771.554 87.3953 769.732 87.3953 767.349C87.3953 764.98 87.7866 763.165 88.5692 761.904C89.3518 760.643 90.4838 760.013 91.9651 760.013ZM88.8836 767.349C88.8836 769.039 89.0374 770.362 89.3448 771.318L93.9985 762.112C93.5093 761.461 92.8315 761.135 91.9651 761.135C91.0008 761.135 90.2462 761.648 89.7012 762.673C89.1561 763.684 88.8836 765.243 88.8836 767.349ZM91.9651 773.563C92.9433 773.563 93.705 773.057 94.25 772.046C94.795 771.02 95.0675 769.455 95.0675 767.349C95.0675 765.562 94.8928 764.176 94.5435 763.192L89.8898 772.482C90.3929 773.202 91.0847 773.563 91.9651 773.563Z" fill="url(#paint23_linear_175_198)" fill-opacity="0.6"/>
<path d="M93.2228 797.148H96.3043V798.249H88.3176V797.148H91.8812V785.468L88.4853 787.484L87.8984 786.549L92.0909 783.972H93.2228V797.148Z" fill="url(#paint24_linear_175_198)" fill-opacity="0.6"/>
<path d="M93.2228 820.899H96.3043V822H88.3176V820.899H91.8812V809.219L88.4853 811.235L87.8984 810.3L92.0909 807.723H93.2228V820.899Z" fill="url(#paint25_linear_175_198)" fill-opacity="0.6"/>
<path d="M33.5698 546.253C35.0651 546.253 36.1971 546.884 36.9657 548.144C37.7483 549.391 38.1396 551.206 38.1396 553.589C38.1396 555.972 37.7483 557.794 36.9657 559.055C36.1971 560.316 35.0651 560.946 33.5698 560.946C32.0885 560.946 30.9565 560.316 30.1739 559.055C29.3913 557.794 29 555.972 29 553.589C29 551.22 29.3913 549.405 30.1739 548.144C30.9565 546.884 32.0885 546.253 33.5698 546.253ZM30.4883 553.589C30.4883 555.28 30.6421 556.603 30.9495 557.559L35.6032 548.352C35.114 547.701 34.4363 547.375 33.5698 547.375C32.6055 547.375 31.8509 547.888 31.3059 548.913C30.7608 549.925 30.4883 551.483 30.4883 553.589ZM33.5698 559.803C34.5481 559.803 35.3097 559.297 35.8547 558.286C36.3997 557.261 36.6722 555.695 36.6722 553.589C36.6722 551.802 36.4976 550.417 36.1482 549.433L31.4945 558.722C31.9976 559.443 32.6894 559.803 33.5698 559.803Z" fill="url(#paint26_linear_175_198)" fill-opacity="0.6"/>
<path d="M33.5698 570.004C35.0651 570.004 36.1971 570.635 36.9657 571.895C37.7483 573.142 38.1396 574.957 38.1396 577.34C38.1396 579.723 37.7483 581.545 36.9657 582.806C36.1971 584.067 35.0651 584.697 33.5698 584.697C32.0885 584.697 30.9565 584.067 30.1739 582.806C29.3913 581.545 29 579.723 29 577.34C29 574.971 29.3913 573.156 30.1739 571.895C30.9565 570.635 32.0885 570.004 33.5698 570.004ZM30.4883 577.34C30.4883 579.031 30.6421 580.354 30.9495 581.31L35.6032 572.103C35.114 571.452 34.4363 571.126 33.5698 571.126C32.6055 571.126 31.8509 571.639 31.3059 572.664C30.7608 573.676 30.4883 575.234 30.4883 577.34ZM33.5698 583.554C34.5481 583.554 35.3097 583.049 35.8547 582.037C36.3997 581.012 36.6722 579.446 36.6722 577.34C36.6722 575.553 36.4976 574.168 36.1482 573.184L31.4945 582.474C31.9976 583.194 32.6894 583.554 33.5698 583.554Z" fill="url(#paint27_linear_175_198)" fill-opacity="0.6"/>
<path d="M34.8276 607.139H37.909V608.24H29.9223V607.139H33.486V595.459L30.09 597.475L29.5031 596.54L33.6956 593.963H34.8276V607.139Z" fill="url(#paint28_linear_175_198)" fill-opacity="0.6"/>
<path d="M33.5698 617.506C35.0651 617.506 36.1971 618.137 36.9657 619.398C37.7483 620.644 38.1396 622.459 38.1396 624.842C38.1396 627.225 37.7483 629.047 36.9657 630.308C36.1971 631.569 35.0651 632.199 33.5698 632.199C32.0885 632.199 30.9565 631.569 30.1739 630.308C29.3913 629.047 29 627.225 29 624.842C29 622.473 29.3913 620.658 30.1739 619.398C30.9565 618.137 32.0885 617.506 33.5698 617.506ZM30.4883 624.842C30.4883 626.533 30.6421 627.856 30.9495 628.812L35.6032 619.605C35.114 618.954 34.4363 618.629 33.5698 618.629C32.6055 618.629 31.8509 619.141 31.3059 620.166C30.7608 621.178 30.4883 622.737 30.4883 624.842ZM33.5698 631.056C34.5481 631.056 35.3097 630.551 35.8547 629.539C36.3997 628.514 36.6722 626.948 36.6722 624.842C36.6722 623.055 36.4976 621.67 36.1482 620.686L31.4945 629.976C31.9976 630.696 32.6894 631.056 33.5698 631.056Z" fill="url(#paint29_linear_175_198)" fill-opacity="0.6"/>
<path d="M34.8276 654.641H37.909V655.743H29.9223V654.641H33.486V642.962L30.09 644.977L29.5031 644.042L33.6956 641.465H34.8276V654.641Z" fill="url(#paint30_linear_175_198)" fill-opacity="0.6"/>
<path d="M34.8276 678.392H37.909V679.494H29.9223V678.392H33.486V666.713L30.09 668.728L29.5031 667.793L33.6956 665.216H34.8276V678.392Z" fill="url(#paint31_linear_175_198)" fill-opacity="0.6"/>
<path d="M73.7577 512.135H76.8392V513.236H68.8525V512.135H72.4162V500.455L69.0202 502.471L68.4333 501.536L72.6258 498.959H73.7577V512.135Z" fill="url(#paint32_linear_175_198)" fill-opacity="0.6"/>
<path d="M72.5 522.502C73.9953 522.502 75.1273 523.133 75.8959 524.393C76.6785 525.64 77.0698 527.455 77.0698 529.838C77.0698 532.221 76.6785 534.043 75.8959 535.304C75.1273 536.565 73.9953 537.195 72.5 537.195C71.0187 537.195 69.8867 536.565 69.1041 535.304C68.3215 534.043 67.9302 532.221 67.9302 529.838C67.9302 527.469 68.3215 525.654 69.1041 524.393C69.8867 523.133 71.0187 522.502 72.5 522.502ZM69.4185 529.838C69.4185 531.529 69.5723 532.852 69.8797 533.808L74.5334 524.601C74.0442 523.95 73.3664 523.624 72.5 523.624C71.5357 523.624 70.7811 524.137 70.2361 525.162C69.691 526.174 69.4185 527.732 69.4185 529.838ZM72.5 536.052C73.4782 536.052 74.2399 535.546 74.7849 534.535C75.3299 533.51 75.6024 531.944 75.6024 529.838C75.6024 528.051 75.4277 526.665 75.0784 525.682L70.4247 534.971C70.9278 535.692 71.6196 536.052 72.5 536.052Z" fill="url(#paint33_linear_175_198)" fill-opacity="0.6"/>
<path d="M73.7577 559.637H76.8392V560.738H68.8525V559.637H72.4162V547.957L69.0202 549.973L68.4333 549.038L72.6258 546.461H73.7577V559.637Z" fill="url(#paint34_linear_175_198)" fill-opacity="0.6"/>
<path d="M73.7577 583.388H76.8392V584.489H68.8525V583.388H72.4162V571.708L69.0202 573.724L68.4333 572.789L72.6258 570.212H73.7577V583.388Z" fill="url(#paint35_linear_175_198)" fill-opacity="0.6"/>
<path d="M72.5 593.755C73.9953 593.755 75.1273 594.386 75.8959 595.646C76.6785 596.893 77.0698 598.708 77.0698 601.091C77.0698 603.474 76.6785 605.296 75.8959 606.557C75.1273 607.818 73.9953 608.448 72.5 608.448C71.0187 608.448 69.8867 607.818 69.1041 606.557C68.3215 605.296 67.9302 603.474 67.9302 601.091C67.9302 598.722 68.3215 596.907 69.1041 595.646C69.8867 594.386 71.0187 593.755 72.5 593.755ZM69.4185 601.091C69.4185 602.782 69.5723 604.105 69.8797 605.061L74.5334 595.854C74.0442 595.203 73.3664 594.878 72.5 594.878C71.5357 594.878 70.7811 595.39 70.2361 596.415C69.691 597.427 69.4185 598.985 69.4185 601.091ZM72.5 607.305C73.4782 607.305 74.2399 606.8 74.7849 605.788C75.3299 604.763 75.6024 603.197 75.6024 601.091C75.6024 599.304 75.4277 597.919 75.0784 596.935L70.4247 606.225C70.9278 606.945 71.6196 607.305 72.5 607.305Z" fill="url(#paint36_linear_175_198)" fill-opacity="0.6"/>
<path d="M73.7577 630.89H76.8392V631.992H68.8525V630.89H72.4162V619.21L69.0202 621.226L68.4333 620.291L72.6258 617.714H73.7577V630.89Z" fill="url(#paint37_linear_175_198)" fill-opacity="0.6"/>
<path d="M73.7577 654.641H76.8392V655.743H68.8525V654.641H72.4162V642.962L69.0202 644.977L68.4333 644.042L72.6258 641.465H73.7577V654.641Z" fill="url(#paint38_linear_175_198)" fill-opacity="0.6"/>
<path d="M72.5 665.008C73.9953 665.008 75.1273 665.639 75.8959 666.9C76.6785 668.147 77.0698 669.962 77.0698 672.345C77.0698 674.728 76.6785 676.549 75.8959 677.81C75.1273 679.071 73.9953 679.701 72.5 679.701C71.0187 679.701 69.8867 679.071 69.1041 677.81C68.3215 676.549 67.9302 674.728 67.9302 672.345C67.9302 669.975 68.3215 668.16 69.1041 666.9C69.8867 665.639 71.0187 665.008 72.5 665.008ZM69.4185 672.345C69.4185 674.035 69.5723 675.358 69.8797 676.314L74.5334 667.107C74.0442 666.456 73.3664 666.131 72.5 666.131C71.5357 666.131 70.7811 666.643 70.2361 667.669C69.691 668.68 69.4185 670.239 69.4185 672.345ZM72.5 678.558C73.4782 678.558 74.2399 678.053 74.7849 677.041C75.3299 676.016 75.6024 674.451 75.6024 672.345C75.6024 670.557 75.4277 669.172 75.0784 668.188L70.4247 677.478C70.9278 678.198 71.6196 678.558 72.5 678.558Z" fill="url(#paint39_linear_175_198)" fill-opacity="0.6"/>
<path d="M73.7577 702.143H76.8392V703.245H68.8525V702.143H72.4162V690.464L69.0202 692.48L68.4333 691.544L72.6258 688.967H73.7577V702.143Z" fill="url(#paint40_linear_175_198)" fill-opacity="0.6"/>
<path d="M72.5 712.511C73.9953 712.511 75.1273 713.141 75.8959 714.402C76.6785 715.649 77.0698 717.464 77.0698 719.847C77.0698 722.23 76.6785 724.052 75.8959 725.312C75.1273 726.573 73.9953 727.204 72.5 727.204C71.0187 727.204 69.8867 726.573 69.1041 725.312C68.3215 724.052 67.9302 722.23 67.9302 719.847C67.9302 717.478 68.3215 715.663 69.1041 714.402C69.8867 713.141 71.0187 712.511 72.5 712.511ZM69.4185 719.847C69.4185 721.537 69.5723 722.86 69.8797 723.816L74.5334 714.61C74.0442 713.958 73.3664 713.633 72.5 713.633C71.5357 713.633 70.7811 714.145 70.2361 715.171C69.691 716.182 69.4185 717.741 69.4185 719.847ZM72.5 726.061C73.4782 726.061 74.2399 725.555 74.7849 724.543C75.3299 723.518 75.6024 721.953 75.6024 719.847C75.6024 718.059 75.4277 716.674 75.0784 715.69L70.4247 724.98C70.9278 725.7 71.6196 726.061 72.5 726.061Z" fill="url(#paint41_linear_175_198)" fill-opacity="0.6"/>
<path d="M111.43 498.751C112.926 498.751 114.057 499.381 114.826 500.642C115.609 501.889 116 503.704 116 506.087C116 508.47 115.609 510.292 114.826 511.553C114.057 512.814 112.926 513.444 111.43 513.444C109.949 513.444 108.817 512.814 108.034 511.553C107.252 510.292 106.86 508.47 106.86 506.087C106.86 503.718 107.252 501.903 108.034 500.642C108.817 499.381 109.949 498.751 111.43 498.751ZM108.349 506.087C108.349 507.777 108.502 509.101 108.81 510.057L113.464 500.85C112.974 500.199 112.297 499.873 111.43 499.873C110.466 499.873 109.711 500.386 109.166 501.411C108.621 502.423 108.349 503.981 108.349 506.087ZM111.43 512.301C112.408 512.301 113.17 511.795 113.715 510.784C114.26 509.759 114.533 508.193 114.533 506.087C114.533 504.3 114.358 502.914 114.009 501.931L109.355 511.22C109.858 511.941 110.55 512.301 111.43 512.301Z" fill="url(#paint42_linear_175_198)" fill-opacity="0.6"/>
<path d="M112.688 535.886H115.769V536.987H107.783V535.886H111.346V524.206L107.95 526.222L107.363 525.287L111.556 522.71H112.688V535.886Z" fill="url(#paint43_linear_175_198)" fill-opacity="0.6"/>
<path d="M112.688 559.637H115.769V560.738H107.783V559.637H111.346V547.957L107.95 549.973L107.363 549.038L111.556 546.461H112.688V559.637Z" fill="url(#paint44_linear_175_198)" fill-opacity="0.6"/>
<path d="M111.43 570.004C112.926 570.004 114.057 570.635 114.826 571.895C115.609 573.142 116 574.957 116 577.34C116 579.723 115.609 581.545 114.826 582.806C114.057 584.067 112.926 584.697 111.43 584.697C109.949 584.697 108.817 584.067 108.034 582.806C107.252 581.545 106.86 579.723 106.86 577.34C106.86 574.971 107.252 573.156 108.034 571.895C108.817 570.635 109.949 570.004 111.43 570.004ZM108.349 577.34C108.349 579.031 108.502 580.354 108.81 581.31L113.464 572.103C112.974 571.452 112.297 571.126 111.43 571.126C110.466 571.126 109.711 571.639 109.166 572.664C108.621 573.676 108.349 575.234 108.349 577.34ZM111.43 583.554C112.408 583.554 113.17 583.049 113.715 582.037C114.26 581.012 114.533 579.446 114.533 577.34C114.533 575.553 114.358 574.168 114.009 573.184L109.355 582.474C109.858 583.194 110.55 583.554 111.43 583.554Z" fill="url(#paint45_linear_175_198)" fill-opacity="0.6"/>
<path d="M111.43 593.755C112.926 593.755 114.057 594.386 114.826 595.646C115.609 596.893 116 598.708 116 601.091C116 603.474 115.609 605.296 114.826 606.557C114.057 607.818 112.926 608.448 111.43 608.448C109.949 608.448 108.817 607.818 108.034 606.557C107.252 605.296 106.86 603.474 106.86 601.091C106.86 598.722 107.252 596.907 108.034 595.646C108.817 594.386 109.949 593.755 111.43 593.755ZM108.349 601.091C108.349 602.782 108.502 604.105 108.81 605.061L113.464 595.854C112.974 595.203 112.297 594.878 111.43 594.878C110.466 594.878 109.711 595.39 109.166 596.415C108.621 597.427 108.349 598.985 108.349 601.091ZM111.43 607.305C112.408 607.305 113.17 606.8 113.715 605.788C114.26 604.763 114.533 603.197 114.533 601.091C114.533 599.304 114.358 597.919 114.009 596.935L109.355 606.225C109.858 606.945 110.55 607.305 111.43 607.305Z" fill="url(#paint46_linear_175_198)" fill-opacity="0.6"/>
<g opacity="0.6">
<path d="M939.93 175C941.356 175 942.436 175.605 943.17 176.815C943.916 178.011 944.29 179.753 944.29 182.04C944.29 184.327 943.916 186.075 943.17 187.285C942.436 188.495 941.356 189.1 939.93 189.1C938.517 189.1 937.437 188.495 936.69 187.285C935.943 186.075 935.57 184.327 935.57 182.04C935.57 179.767 935.943 178.025 936.69 176.815C937.437 175.605 938.517 175 939.93 175ZM936.99 182.04C936.99 183.662 937.137 184.932 937.43 185.849L941.87 177.014C941.403 176.389 940.756 176.077 939.93 176.077C939.01 176.077 938.29 176.569 937.77 177.553C937.25 178.523 936.99 180.019 936.99 182.04ZM939.93 188.003C940.863 188.003 941.59 187.518 942.11 186.547C942.63 185.564 942.89 184.061 942.89 182.04C942.89 180.325 942.723 178.995 942.39 178.051L937.95 186.966C938.43 187.658 939.09 188.003 939.93 188.003Z" fill="url(#paint47_linear_175_198)"/>
<path d="M941.13 210.637H944.07V211.694H936.45V210.637H939.85V199.428L936.61 201.363L936.05 200.465L940.05 197.992H941.13V210.637Z" fill="url(#paint48_linear_175_198)"/>
<path d="M939.93 220.586C941.356 220.586 942.436 221.191 943.17 222.4C943.916 223.597 944.29 225.339 944.29 227.626C944.29 229.913 943.916 231.661 943.17 232.871C942.436 234.081 941.356 234.686 939.93 234.686C938.517 234.686 937.437 234.081 936.69 232.871C935.943 231.661 935.57 229.913 935.57 227.626C935.57 225.352 935.943 223.61 936.69 222.4C937.437 221.191 938.517 220.586 939.93 220.586ZM936.99 227.626C936.99 229.248 937.137 230.518 937.43 231.435L941.87 222.6C941.403 221.975 940.756 221.663 939.93 221.663C939.01 221.663 938.29 222.155 937.77 223.138C937.25 224.109 936.99 225.605 936.99 227.626ZM939.93 233.589C940.863 233.589 941.59 233.104 942.11 232.133C942.63 231.149 942.89 229.647 942.89 227.626C942.89 225.911 942.723 224.581 942.39 223.637L937.95 232.552C938.43 233.243 939.09 233.589 939.93 233.589Z" fill="url(#paint49_linear_175_198)"/>
<path d="M941.13 256.222H944.07V257.279H936.45V256.222H939.85V245.014L936.61 246.948L936.05 246.051L940.05 243.578H941.13V256.222Z" fill="url(#paint50_linear_175_198)"/>
<path d="M941.13 279.015H944.07V280.072H936.45V279.015H939.85V267.807L936.61 269.741L936.05 268.844L940.05 266.371H941.13V279.015Z" fill="url(#paint51_linear_175_198)"/>
<path d="M939.93 288.964C941.356 288.964 942.436 289.569 943.17 290.779C943.916 291.976 944.29 293.717 944.29 296.004C944.29 298.291 943.916 300.039 943.17 301.249C942.436 302.459 941.356 303.064 939.93 303.064C938.517 303.064 937.437 302.459 936.69 301.249C935.943 300.039 935.57 298.291 935.57 296.004C935.57 293.731 935.943 291.989 936.69 290.779C937.437 289.569 938.517 288.964 939.93 288.964ZM936.99 296.004C936.99 297.626 937.137 298.896 937.43 299.813L941.87 290.978C941.403 290.353 940.756 290.041 939.93 290.041C939.01 290.041 938.29 290.533 937.77 291.517C937.25 292.487 936.99 293.983 936.99 296.004ZM939.93 301.967C940.863 301.967 941.59 301.482 942.11 300.511C942.63 299.528 942.89 298.025 942.89 296.004C942.89 294.289 942.723 292.959 942.39 292.015L937.95 300.93C938.43 301.622 939.09 301.967 939.93 301.967Z" fill="url(#paint52_linear_175_198)"/>
<path d="M941.13 324.601H944.07V325.658H936.45V324.601H939.85V313.392L936.61 315.327L936.05 314.429L940.05 311.956H941.13V324.601Z" fill="url(#paint53_linear_175_198)"/>
<path d="M939.93 334.55C941.356 334.55 942.436 335.155 943.17 336.365C943.916 337.561 944.29 339.303 944.29 341.59C944.29 343.877 943.916 345.625 943.17 346.835C942.436 348.045 941.356 348.65 939.93 348.65C938.517 348.65 937.437 348.045 936.69 346.835C935.943 345.625 935.57 343.877 935.57 341.59C935.57 339.316 935.943 337.574 936.69 336.365C937.437 335.155 938.517 334.55 939.93 334.55ZM936.99 341.59C936.99 343.212 937.137 344.482 937.43 345.399L941.87 336.564C941.403 335.939 940.756 335.627 939.93 335.627C939.01 335.627 938.29 336.119 937.77 337.102C937.25 338.073 936.99 339.569 936.99 341.59ZM939.93 347.553C940.863 347.553 941.59 347.068 942.11 346.097C942.63 345.113 942.89 343.611 942.89 341.59C942.89 339.875 942.723 338.545 942.39 337.601L937.95 346.516C938.43 347.207 939.09 347.553 939.93 347.553Z" fill="url(#paint54_linear_175_198)"/>
<path d="M939.93 357.342C941.356 357.342 942.436 357.947 943.17 359.157C943.916 360.354 944.29 362.096 944.29 364.383C944.29 366.669 943.916 368.418 943.17 369.628C942.436 370.838 941.356 371.443 939.93 371.443C938.517 371.443 937.437 370.838 936.69 369.628C935.943 368.418 935.57 366.669 935.57 364.383C935.57 362.109 935.943 360.367 936.69 359.157C937.437 357.947 938.517 357.342 939.93 357.342ZM936.99 364.383C936.99 366.005 937.137 367.274 937.43 368.192L941.87 359.357C941.403 358.732 940.756 358.419 939.93 358.419C939.01 358.419 938.29 358.911 937.77 359.895C937.25 360.866 936.99 362.362 936.99 364.383ZM939.93 370.346C940.863 370.346 941.59 369.86 942.11 368.89C942.63 367.906 942.89 366.404 942.89 364.383C942.89 362.667 942.723 361.338 942.39 360.394L937.95 369.309C938.43 370 939.09 370.346 939.93 370.346Z" fill="url(#paint55_linear_175_198)"/>
<path d="M941.13 392.979H944.07V394.036H936.45V392.979H939.85V381.771L936.61 383.705L936.05 382.808L940.05 380.335H941.13V392.979Z" fill="url(#paint56_linear_175_198)"/>
<path d="M939.93 402.928C941.356 402.928 942.436 403.533 943.17 404.743C943.916 405.94 944.29 407.681 944.29 409.968C944.29 412.255 943.916 414.003 943.17 415.213C942.436 416.423 941.356 417.028 939.93 417.028C938.517 417.028 937.437 416.423 936.69 415.213C935.943 414.003 935.57 412.255 935.57 409.968C935.57 407.695 935.943 405.953 936.69 404.743C937.437 403.533 938.517 402.928 939.93 402.928ZM936.99 409.968C936.99 411.59 937.137 412.86 937.43 413.777L941.87 404.942C941.403 404.317 940.756 404.005 939.93 404.005C939.01 404.005 938.29 404.497 937.77 405.481C937.25 406.451 936.99 407.947 936.99 409.968ZM939.93 415.931C940.863 415.931 941.59 415.446 942.11 414.475C942.63 413.492 942.89 411.989 942.89 409.968C942.89 408.253 942.723 406.923 942.39 405.979L937.95 414.894C938.43 415.586 939.09 415.931 939.93 415.931Z" fill="url(#paint57_linear_175_198)"/>
<path d="M941.13 438.565H944.07V439.622H936.45V438.565H939.85V427.356L936.61 429.291L936.05 428.393L940.05 425.92H941.13V438.565Z" fill="url(#paint58_linear_175_198)"/>
<path d="M941.13 461.357H944.07V462.414H936.45V461.357H939.85V450.149L936.61 452.084L936.05 451.186L940.05 448.713H941.13V461.357Z" fill="url(#paint59_linear_175_198)"/>
<path d="M977.07 220.586C978.497 220.586 979.577 221.191 980.31 222.4C981.057 223.597 981.43 225.339 981.43 227.626C981.43 229.913 981.057 231.661 980.31 232.871C979.577 234.081 978.497 234.686 977.07 234.686C975.657 234.686 974.577 234.081 973.83 232.871C973.084 231.661 972.71 229.913 972.71 227.626C972.71 225.352 973.084 223.61 973.83 222.4C974.577 221.191 975.657 220.586 977.07 220.586ZM974.13 227.626C974.13 229.248 974.277 230.518 974.57 231.435L979.01 222.6C978.543 221.975 977.897 221.663 977.07 221.663C976.15 221.663 975.43 222.155 974.91 223.138C974.39 224.109 974.13 225.605 974.13 227.626ZM977.07 233.589C978.003 233.589 978.73 233.104 979.25 232.133C979.77 231.149 980.03 229.647 980.03 227.626C980.03 225.911 979.863 224.581 979.53 223.637L975.09 232.552C975.57 233.243 976.23 233.589 977.07 233.589Z" fill="url(#paint60_linear_175_198)"/>
<path d="M978.27 256.222H981.21V257.279H973.59V256.222H976.99V245.014L973.75 246.948L973.19 246.051L977.19 243.578H978.27V256.222Z" fill="url(#paint61_linear_175_198)"/>
<path d="M977.07 266.171C978.497 266.171 979.577 266.776 980.31 267.986C981.057 269.183 981.43 270.924 981.43 273.211C981.43 275.498 981.057 277.247 980.31 278.457C979.577 279.666 978.497 280.271 977.07 280.271C975.657 280.271 974.577 279.666 973.83 278.457C973.084 277.247 972.71 275.498 972.71 273.211C972.71 270.938 973.084 269.196 973.83 267.986C974.577 266.776 975.657 266.171 977.07 266.171ZM974.13 273.211C974.13 274.833 974.277 276.103 974.57 277.021L979.01 268.186C978.543 267.561 977.897 267.248 977.07 267.248C976.15 267.248 975.43 267.74 974.91 268.724C974.39 269.695 974.13 271.19 974.13 273.211ZM977.07 279.174C978.003 279.174 978.73 278.689 979.25 277.719C979.77 276.735 980.03 275.232 980.03 273.211C980.03 271.496 979.863 270.167 979.53 269.223L975.09 278.137C975.57 278.829 976.23 279.174 977.07 279.174Z" fill="url(#paint62_linear_175_198)"/>
<path d="M977.07 288.964C978.497 288.964 979.577 289.569 980.31 290.779C981.057 291.976 981.43 293.717 981.43 296.004C981.43 298.291 981.057 300.039 980.31 301.249C979.577 302.459 978.497 303.064 977.07 303.064C975.657 303.064 974.577 302.459 973.83 301.249C973.084 300.039 972.71 298.291 972.71 296.004C972.71 293.731 973.084 291.989 973.83 290.779C974.577 289.569 975.657 288.964 977.07 288.964ZM974.13 296.004C974.13 297.626 974.277 298.896 974.57 299.813L979.01 290.978C978.543 290.353 977.897 290.041 977.07 290.041C976.15 290.041 975.43 290.533 974.91 291.517C974.39 292.487 974.13 293.983 974.13 296.004ZM977.07 301.967C978.003 301.967 978.73 301.482 979.25 300.511C979.77 299.528 980.03 298.025 980.03 296.004C980.03 294.289 979.863 292.959 979.53 292.015L975.09 300.93C975.57 301.622 976.23 301.967 977.07 301.967Z" fill="url(#paint63_linear_175_198)"/>
<path d="M978.27 324.601H981.21V325.658H973.59V324.601H976.99V313.392L973.75 315.327L973.19 314.429L977.19 311.956H978.27V324.601Z" fill="url(#paint64_linear_175_198)"/>
<path d="M977.07 334.55C978.497 334.55 979.577 335.155 980.31 336.365C981.057 337.561 981.43 339.303 981.43 341.59C981.43 343.877 981.057 345.625 980.31 346.835C979.577 348.045 978.497 348.65 977.07 348.65C975.657 348.65 974.577 348.045 973.83 346.835C973.084 345.625 972.71 343.877 972.71 341.59C972.71 339.316 973.084 337.574 973.83 336.365C974.577 335.155 975.657 334.55 977.07 334.55ZM974.13 341.59C974.13 343.212 974.277 344.482 974.57 345.399L979.01 336.564C978.543 335.939 977.897 335.627 977.07 335.627C976.15 335.627 975.43 336.119 974.91 337.102C974.39 338.073 974.13 339.569 974.13 341.59ZM977.07 347.553C978.003 347.553 978.73 347.068 979.25 346.097C979.77 345.113 980.03 343.611 980.03 341.59C980.03 339.875 979.863 338.545 979.53 337.601L975.09 346.516C975.57 347.207 976.23 347.553 977.07 347.553Z" fill="url(#paint65_linear_175_198)"/>
<path d="M978.27 370.186H981.21V371.243H973.59V370.186H976.99V358.978L973.75 360.912L973.19 360.015L977.19 357.542H978.27V370.186Z" fill="url(#paint66_linear_175_198)"/>
<path d="M977.07 380.135C978.497 380.135 979.577 380.74 980.31 381.95C981.057 383.147 981.43 384.888 981.43 387.175C981.43 389.462 981.057 391.211 980.31 392.421C979.577 393.63 978.497 394.235 977.07 394.235C975.657 394.235 974.577 393.63 973.83 392.421C973.084 391.211 972.71 389.462 972.71 387.175C972.71 384.902 973.084 383.16 973.83 381.95C974.577 380.74 975.657 380.135 977.07 380.135ZM974.13 387.175C974.13 388.797 974.277 390.067 974.57 390.985L979.01 382.15C978.543 381.525 977.897 381.212 977.07 381.212C976.15 381.212 975.43 381.704 974.91 382.688C974.39 383.659 974.13 385.154 974.13 387.175ZM977.07 393.139C978.003 393.139 978.73 392.653 979.25 391.683C979.77 390.699 980.03 389.196 980.03 387.175C980.03 385.46 979.863 384.131 979.53 383.187L975.09 392.101C975.57 392.793 976.23 393.139 977.07 393.139Z" fill="url(#paint67_linear_175_198)"/>
<path d="M977.07 402.928C978.497 402.928 979.577 403.533 980.31 404.743C981.057 405.94 981.43 407.681 981.43 409.968C981.43 412.255 981.057 414.003 980.31 415.213C979.577 416.423 978.497 417.028 977.07 417.028C975.657 417.028 974.577 416.423 973.83 415.213C973.084 414.003 972.71 412.255 972.71 409.968C972.71 407.695 973.084 405.953 973.83 404.743C974.577 403.533 975.657 402.928 977.07 402.928ZM974.13 409.968C974.13 411.59 974.277 412.86 974.57 413.777L979.01 404.942C978.543 404.317 977.897 404.005 977.07 404.005C976.15 404.005 975.43 404.497 974.91 405.481C974.39 406.451 974.13 407.947 974.13 409.968ZM977.07 415.931C978.003 415.931 978.73 415.446 979.25 414.475C979.77 413.492 980.03 411.989 980.03 409.968C980.03 408.253 979.863 406.923 979.53 405.979L975.09 414.894C975.57 415.586 976.23 415.931 977.07 415.931Z" fill="url(#paint68_linear_175_198)"/>
<path d="M978.27 438.565H981.21V439.622H973.59V438.565H976.99V427.356L973.75 429.291L973.19 428.393L977.19 425.92H978.27V438.565Z" fill="url(#paint69_linear_175_198)"/>
<path d="M977.07 448.514C978.497 448.514 979.577 449.119 980.31 450.329C981.057 451.525 981.43 453.267 981.43 455.554C981.43 457.841 981.057 459.589 980.31 460.799C979.577 462.009 978.497 462.614 977.07 462.614C975.657 462.614 974.577 462.009 973.83 460.799C973.084 459.589 972.71 457.841 972.71 455.554C972.71 453.28 973.084 451.538 973.83 450.329C974.577 449.119 975.657 448.514 977.07 448.514ZM974.13 455.554C974.13 457.176 974.277 458.446 974.57 459.363L979.01 450.528C978.543 449.903 977.897 449.591 977.07 449.591C976.15 449.591 975.43 450.083 974.91 451.066C974.39 452.037 974.13 453.533 974.13 455.554ZM977.07 461.517C978.003 461.517 978.73 461.032 979.25 460.061C979.77 459.077 980.03 457.575 980.03 455.554C980.03 453.839 979.863 452.509 979.53 451.565L975.09 460.48C975.57 461.171 976.23 461.517 977.07 461.517Z" fill="url(#paint70_linear_175_198)"/>
<path d="M978.27 484.15H981.21V485.207H973.59V484.15H976.99V472.942L973.75 474.876L973.19 473.979L977.19 471.506H978.27V484.15Z" fill="url(#paint71_linear_175_198)"/>
<path d="M978.27 506.943H981.21V508H973.59V506.943H976.99V495.735L973.75 497.669L973.19 496.772L977.19 494.299H978.27V506.943Z" fill="url(#paint72_linear_175_198)"/>
<path d="M921.36 243.378C922.786 243.378 923.866 243.983 924.599 245.193C925.346 246.39 925.719 248.132 925.719 250.419C925.719 252.705 925.346 254.454 924.599 255.664C923.866 256.874 922.786 257.479 921.36 257.479C919.946 257.479 918.867 256.874 918.12 255.664C917.373 254.454 917 252.705 917 250.419C917 248.145 917.373 246.403 918.12 245.193C918.867 243.983 919.946 243.378 921.36 243.378ZM918.42 250.419C918.42 252.041 918.567 253.31 918.86 254.228L923.3 245.393C922.833 244.768 922.186 244.455 921.36 244.455C920.44 244.455 919.72 244.947 919.2 245.931C918.68 246.902 918.42 248.398 918.42 250.419ZM921.36 256.382C922.293 256.382 923.02 255.896 923.54 254.926C924.06 253.942 924.319 252.44 924.319 250.419C924.319 248.703 924.153 247.374 923.82 246.43L919.38 255.345C919.86 256.036 920.52 256.382 921.36 256.382Z" fill="url(#paint73_linear_175_198)"/>
<path d="M921.36 266.171C922.786 266.171 923.866 266.776 924.599 267.986C925.346 269.183 925.719 270.924 925.719 273.211C925.719 275.498 925.346 277.247 924.599 278.457C923.866 279.666 922.786 280.271 921.36 280.271C919.946 280.271 918.867 279.666 918.12 278.457C917.373 277.247 917 275.498 917 273.211C917 270.938 917.373 269.196 918.12 267.986C918.867 266.776 919.946 266.171 921.36 266.171ZM918.42 273.211C918.42 274.833 918.567 276.103 918.86 277.021L923.3 268.186C922.833 267.561 922.186 267.248 921.36 267.248C920.44 267.248 919.72 267.74 919.2 268.724C918.68 269.695 918.42 271.19 918.42 273.211ZM921.36 279.174C922.293 279.174 923.02 278.689 923.54 277.719C924.06 276.735 924.319 275.232 924.319 273.211C924.319 271.496 924.153 270.167 923.82 269.223L919.38 278.137C919.86 278.829 920.52 279.174 921.36 279.174Z" fill="url(#paint74_linear_175_198)"/>
<path d="M922.56 301.808H925.499V302.865H917.88V301.808H921.28V290.599L918.04 292.534L917.48 291.636L921.48 289.163H922.56V301.808Z" fill="url(#paint75_linear_175_198)"/>
<path d="M921.36 311.757C922.786 311.757 923.866 312.362 924.599 313.572C925.346 314.768 925.719 316.51 925.719 318.797C925.719 321.084 925.346 322.832 924.599 324.042C923.866 325.252 922.786 325.857 921.36 325.857C919.946 325.857 918.867 325.252 918.12 324.042C917.373 322.832 917 321.084 917 318.797C917 316.523 917.373 314.782 918.12 313.572C918.867 312.362 919.946 311.757 921.36 311.757ZM918.42 318.797C918.42 320.419 918.567 321.689 918.86 322.606L923.3 313.771C922.833 313.146 922.186 312.834 921.36 312.834C920.44 312.834 919.72 313.326 919.2 314.31C918.68 315.28 918.42 316.776 918.42 318.797ZM921.36 324.76C922.293 324.76 923.02 324.275 923.54 323.304C924.06 322.32 924.319 320.818 924.319 318.797C924.319 317.082 924.153 315.752 923.82 314.808L919.38 323.723C919.86 324.414 920.52 324.76 921.36 324.76Z" fill="url(#paint76_linear_175_198)"/>
<path d="M922.56 347.393H925.499V348.45H917.88V347.393H921.28V336.185L918.04 338.12L917.48 337.222L921.48 334.749H922.56V347.393Z" fill="url(#paint77_linear_175_198)"/>
<path d="M922.56 370.186H925.499V371.243H917.88V370.186H921.28V358.978L918.04 360.912L917.48 360.015L921.48 357.542H922.56V370.186Z" fill="url(#paint78_linear_175_198)"/>
<path d="M959.7 210.637H962.64V211.694H955.02V210.637H958.42V199.428L955.18 201.363L954.62 200.465L958.62 197.992H959.7V210.637Z" fill="url(#paint79_linear_175_198)"/>
<path d="M958.5 220.586C959.927 220.586 961.006 221.191 961.74 222.4C962.486 223.597 962.86 225.339 962.86 227.626C962.86 229.913 962.486 231.661 961.74 232.871C961.006 234.081 959.927 234.686 958.5 234.686C957.087 234.686 956.007 234.081 955.26 232.871C954.514 231.661 954.14 229.913 954.14 227.626C954.14 225.352 954.514 223.61 955.26 222.4C956.007 221.191 957.087 220.586 958.5 220.586ZM955.56 227.626C955.56 229.248 955.707 230.518 956 231.435L960.44 222.6C959.973 221.975 959.327 221.663 958.5 221.663C957.58 221.663 956.86 222.155 956.34 223.138C955.82 224.109 955.56 225.605 955.56 227.626ZM958.5 233.589C959.433 233.589 960.16 233.104 960.68 232.133C961.2 231.149 961.46 229.647 961.46 227.626C961.46 225.911 961.293 224.581 960.96 223.637L956.52 232.552C957 233.243 957.66 233.589 958.5 233.589Z" fill="url(#paint80_linear_175_198)"/>
<path d="M959.7 256.222H962.64V257.279H955.02V256.222H958.42V245.014L955.18 246.948L954.62 246.051L958.62 243.578H959.7V256.222Z" fill="url(#paint81_linear_175_198)"/>
<path d="M959.7 279.015H962.64V280.072H955.02V279.015H958.42V267.807L955.18 269.741L954.62 268.844L958.62 266.371H959.7V279.015Z" fill="url(#paint82_linear_175_198)"/>
<path d="M958.5 288.964C959.927 288.964 961.006 289.569 961.74 290.779C962.486 291.976 962.86 293.717 962.86 296.004C962.86 298.291 962.486 300.039 961.74 301.249C961.006 302.459 959.927 303.064 958.5 303.064C957.087 303.064 956.007 302.459 955.26 301.249C954.514 300.039 954.14 298.291 954.14 296.004C954.14 293.731 954.514 291.989 955.26 290.779C956.007 289.569 957.087 288.964 958.5 288.964ZM955.56 296.004C955.56 297.626 955.707 298.896 956 299.813L960.44 290.978C959.973 290.353 959.327 290.041 958.5 290.041C957.58 290.041 956.86 290.533 956.34 291.517C955.82 292.487 955.56 293.983 955.56 296.004ZM958.5 301.967C959.433 301.967 960.16 301.482 960.68 300.511C961.2 299.528 961.46 298.025 961.46 296.004C961.46 294.289 961.293 292.959 960.96 292.015L956.52 300.93C957 301.622 957.66 301.967 958.5 301.967Z" fill="url(#paint83_linear_175_198)"/>
<path d="M959.7 324.601H962.64V325.658H955.02V324.601H958.42V313.392L955.18 315.327L954.62 314.429L958.62 311.956H959.7V324.601Z" fill="url(#paint84_linear_175_198)"/>
<path d="M959.7 347.393H962.64V348.45H955.02V347.393H958.42V336.185L955.18 338.12L954.62 337.222L958.62 334.749H959.7V347.393Z" fill="url(#paint85_linear_175_198)"/>
<path d="M958.5 357.342C959.927 357.342 961.006 357.947 961.74 359.157C962.486 360.354 962.86 362.096 962.86 364.383C962.86 366.669 962.486 368.418 961.74 369.628C961.006 370.838 959.927 371.443 958.5 371.443C957.087 371.443 956.007 370.838 955.26 369.628C954.514 368.418 954.14 366.669 954.14 364.383C954.14 362.109 954.514 360.367 955.26 359.157C956.007 357.947 957.087 357.342 958.5 357.342ZM955.56 364.383C955.56 366.005 955.707 367.274 956 368.192L960.44 359.357C959.973 358.732 959.327 358.419 958.5 358.419C957.58 358.419 956.86 358.911 956.34 359.895C955.82 360.866 955.56 362.362 955.56 364.383ZM958.5 370.346C959.433 370.346 960.16 369.86 960.68 368.89C961.2 367.906 961.46 366.404 961.46 364.383C961.46 362.667 961.293 361.338 960.96 360.394L956.52 369.309C957 370 957.66 370.346 958.5 370.346Z" fill="url(#paint86_linear_175_198)"/>
<path d="M959.7 392.979H962.64V394.036H955.02V392.979H958.42V381.771L955.18 383.705L954.62 382.808L958.62 380.335H959.7V392.979Z" fill="url(#paint87_linear_175_198)"/>
<path d="M958.5 402.928C959.927 402.928 961.006 403.533 961.74 404.743C962.486 405.94 962.86 407.681 962.86 409.968C962.86 412.255 962.486 414.003 961.74 415.213C961.006 416.423 959.927 417.028 958.5 417.028C957.087 417.028 956.007 416.423 955.26 415.213C954.514 414.003 954.14 412.255 954.14 409.968C954.14 407.695 954.514 405.953 955.26 404.743C956.007 403.533 957.087 402.928 958.5 402.928ZM955.56 409.968C955.56 411.59 955.707 412.86 956 413.777L960.44 404.942C959.973 404.317 959.327 404.005 958.5 404.005C957.58 404.005 956.86 404.497 956.34 405.481C955.82 406.451 955.56 407.947 955.56 409.968ZM958.5 415.931C959.433 415.931 960.16 415.446 960.68 414.475C961.2 413.492 961.46 411.989 961.46 409.968C961.46 408.253 961.293 406.923 960.96 405.979L956.52 414.894C957 415.586 957.66 415.931 958.5 415.931Z" fill="url(#paint88_linear_175_198)"/>
<path d="M995.64 197.793C997.067 197.793 998.147 198.398 998.88 199.608C999.627 200.804 1000 202.546 1000 204.833C1000 207.12 999.627 208.868 998.88 210.078C998.147 211.288 997.067 211.893 995.64 211.893C994.227 211.893 993.147 211.288 992.401 210.078C991.654 208.868 991.281 207.12 991.281 204.833C991.281 202.559 991.654 200.818 992.401 199.608C993.147 198.398 994.227 197.793 995.64 197.793ZM992.7 204.833C992.7 206.455 992.847 207.725 993.14 208.642L997.58 199.807C997.114 199.182 996.467 198.87 995.64 198.87C994.72 198.87 994 199.362 993.48 200.346C992.96 201.316 992.7 202.812 992.7 204.833ZM995.64 210.796C996.574 210.796 997.3 210.311 997.82 209.34C998.34 208.356 998.6 206.854 998.6 204.833C998.6 203.118 998.433 201.788 998.1 200.844L993.66 209.759C994.14 210.45 994.8 210.796 995.64 210.796Z" fill="url(#paint89_linear_175_198)"/>
<path d="M996.84 233.429H999.78V234.486H992.161V233.429H995.56V222.221L992.321 224.156L991.761 223.258L995.76 220.785H996.84V233.429Z" fill="url(#paint90_linear_175_198)"/>
<path d="M996.84 256.222H999.78V257.279H992.161V256.222H995.56V245.014L992.321 246.948L991.761 246.051L995.76 243.578H996.84V256.222Z" fill="url(#paint91_linear_175_198)"/>
<path d="M995.64 266.171C997.067 266.171 998.147 266.776 998.88 267.986C999.627 269.183 1000 270.924 1000 273.211C1000 275.498 999.627 277.247 998.88 278.457C998.147 279.666 997.067 280.271 995.64 280.271C994.227 280.271 993.147 279.666 992.401 278.457C991.654 277.247 991.281 275.498 991.281 273.211C991.281 270.938 991.654 269.196 992.401 267.986C993.147 266.776 994.227 266.171 995.64 266.171ZM992.7 273.211C992.7 274.833 992.847 276.103 993.14 277.021L997.58 268.186C997.114 267.561 996.467 267.248 995.64 267.248C994.72 267.248 994 267.74 993.48 268.724C992.96 269.695 992.7 271.19 992.7 273.211ZM995.64 279.174C996.574 279.174 997.3 278.689 997.82 277.719C998.34 276.735 998.6 275.232 998.6 273.211C998.6 271.496 998.433 270.167 998.1 269.223L993.66 278.137C994.14 278.829 994.8 279.174 995.64 279.174Z" fill="url(#paint92_linear_175_198)"/>
<path d="M995.64 288.964C997.067 288.964 998.147 289.569 998.88 290.779C999.627 291.976 1000 293.717 1000 296.004C1000 298.291 999.627 300.039 998.88 301.249C998.147 302.459 997.067 303.064 995.64 303.064C994.227 303.064 993.147 302.459 992.401 301.249C991.654 300.039 991.281 298.291 991.281 296.004C991.281 293.731 991.654 291.989 992.401 290.779C993.147 289.569 994.227 288.964 995.64 288.964ZM992.7 296.004C992.7 297.626 992.847 298.896 993.14 299.813L997.58 290.978C997.114 290.353 996.467 290.041 995.64 290.041C994.72 290.041 994 290.533 993.48 291.517C992.96 292.487 992.7 293.983 992.7 296.004ZM995.64 301.967C996.574 301.967 997.3 301.482 997.82 300.511C998.34 299.528 998.6 298.025 998.6 296.004C998.6 294.289 998.433 292.959 998.1 292.015L993.66 300.93C994.14 301.622 994.8 301.967 995.64 301.967Z" fill="url(#paint93_linear_175_198)"/>
</g>
<defs>
<filter id="filter0_f_175_198" x="-538.19" y="-511.19" width="2141.38" height="1500.38" filterUnits="userSpaceOnUse" color-interpolation-filters="sRGB">
<feFlood flood-opacity="0" result="BackgroundImageFix"/>
<feBlend mode="normal" in="SourceGraphic" in2="BackgroundImageFix" result="shape"/>
<feGaussianBlur stdDeviation="200.095" result="effect1_foregroundBlur_175_198"/>
</filter>
<linearGradient id="paint0_linear_175_198" x1="72.5" y1="475" x2="72.5" y2="786.381" gradientUnits="userSpaceOnUse">
<stop stop-color="#F7DD43"/>
<stop offset="1" stop-color="#F7DD43" stop-opacity="0"/>
</linearGradient>
<linearGradient id="paint1_linear_175_198" x1="72.5" y1="475" x2="72.5" y2="786.381" gradientUnits="userSpaceOnUse">
<stop stop-color="#F7DD43"/>
<stop offset="1" stop-color="#F7DD43" stop-opacity="0"/>
</linearGradient>
<linearGradient id="paint2_linear_175_198" x1="72.5" y1="475" x2="72.5" y2="786.381" gradientUnits="userSpaceOnUse">
<stop stop-color="#F7DD43"/>
<stop offset="1" stop-color="#F7DD43" stop-opacity="0"/>
</linearGradient>
<linearGradient id="paint3_linear_175_198" x1="72.5" y1="475" x2="72.5" y2="786.381" gradientUnits="userSpaceOnUse">
<stop stop-color="#F7DD43"/>
<stop offset="1" stop-color="#F7DD43" stop-opacity="0"/>
</linearGradient>
<linearGradient id="paint4_linear_175_198" x1="72.5" y1="475" x2="72.5" y2="786.381" gradientUnits="userSpaceOnUse">
<stop stop-color="#F7DD43"/>
<stop offset="1" stop-color="#F7DD43" stop-opacity="0"/>
</linearGradient>
<linearGradient id="paint5_linear_175_198" x1="72.5" y1="475" x2="72.5" y2="786.381" gradientUnits="userSpaceOnUse">
<stop stop-color="#F7DD43"/>
<stop offset="1" stop-color="#F7DD43" stop-opacity="0"/>
</linearGradient>
<linearGradient id="paint6_linear_175_198" x1="72.5" y1="475" x2="72.5" y2="786.381" gradientUnits="userSpaceOnUse">
<stop stop-color="#F7DD43"/>
<stop offset="1" stop-color="#F7DD43" stop-opacity="0"/>
</linearGradient>
<linearGradient id="paint7_linear_175_198" x1="72.5" y1="475" x2="72.5" y2="786.381" gradientUnits="userSpaceOnUse">
<stop stop-color="#F7DD43"/>
<stop offset="1" stop-color="#F7DD43" stop-opacity="0"/>
</linearGradient>
<linearGradient id="paint8_linear_175_198" x1="72.5" y1="475" x2="72.5" y2="786.381" gradientUnits="userSpaceOnUse">
<stop stop-color="#F7DD43"/>
<stop offset="1" stop-color="#F7DD43" stop-opacity="0"/>
</linearGradient>
<linearGradient id="paint9_linear_175_198" x1="72.5" y1="475" x2="72.5" y2="786.381" gradientUnits="userSpaceOnUse">
<stop stop-color="#F7DD43"/>
<stop offset="1" stop-color="#F7DD43" stop-opacity="0"/>
</linearGradient>
<linearGradient id="paint10_linear_175_198" x1="72.5" y1="475" x2="72.5" y2="786.381" gradientUnits="userSpaceOnUse">
<stop stop-color="#F7DD43"/>
<stop offset="1" stop-color="#F7DD43" stop-opacity="0"/>
</linearGradient>
<linearGradient id="paint11_linear_175_198" x1="72.5" y1="475" x2="72.5" y2="786.381" gradientUnits="userSpaceOnUse">
<stop stop-color="#F7DD43"/>
<stop offset="1" stop-color="#F7DD43" stop-opacity="0"/>
</linearGradient>
<linearGradient id="paint12_linear_175_198" x1="72.5" y1="475" x2="72.5" y2="786.381" gradientUnits="userSpaceOnUse">
<stop stop-color="#F7DD43"/>
<stop offset="1" stop-color="#F7DD43" stop-opacity="0"/>
</linearGradient>
<linearGradient id="paint13_linear_175_198" x1="72.5" y1="475" x2="72.5" y2="786.381" gradientUnits="userSpaceOnUse">
<stop stop-color="#F7DD43"/>
<stop offset="1" stop-color="#F7DD43" stop-opacity="0"/>
</linearGradient>
<linearGradient id="paint14_linear_175_198" x1="72.5" y1="475" x2="72.5" y2="786.381" gradientUnits="userSpaceOnUse">
<stop stop-color="#F7DD43"/>
<stop offset="1" stop-color="#F7DD43" stop-opacity="0"/>
</linearGradient>
<linearGradient id="paint15_linear_175_198" x1="72.5" y1="475" x2="72.5" y2="786.381" gradientUnits="userSpaceOnUse">
<stop stop-color="#F7DD43"/>
<stop offset="1" stop-color="#F7DD43" stop-opacity="0"/>
</linearGradient>
<linearGradient id="paint16_linear_175_198" x1="72.5" y1="475" x2="72.5" y2="786.381" gradientUnits="userSpaceOnUse">
<stop stop-color="#F7DD43"/>
<stop offset="1" stop-color="#F7DD43" stop-opacity="0"/>
</linearGradient>
<linearGradient id="paint17_linear_175_198" x1="72.5" y1="475" x2="72.5" y2="786.381" gradientUnits="userSpaceOnUse">
<stop stop-color="#F7DD43"/>
<stop offset="1" stop-color="#F7DD43" stop-opacity="0"/>
</linearGradient>
<linearGradient id="paint18_linear_175_198" x1="72.5" y1="475" x2="72.5" y2="786.381" gradientUnits="userSpaceOnUse">
<stop stop-color="#F7DD43"/>
<stop offset="1" stop-color="#F7DD43" stop-opacity="0"/>
</linearGradient>
<linearGradient id="paint19_linear_175_198" x1="72.5" y1="475" x2="72.5" y2="786.381" gradientUnits="userSpaceOnUse">
<stop stop-color="#F7DD43"/>
<stop offset="1" stop-color="#F7DD43" stop-opacity="0"/>
</linearGradient>
<linearGradient id="paint20_linear_175_198" x1="72.5" y1="475" x2="72.5" y2="786.381" gradientUnits="userSpaceOnUse">
<stop stop-color="#F7DD43"/>
<stop offset="1" stop-color="#F7DD43" stop-opacity="0"/>
</linearGradient>
<linearGradient id="paint21_linear_175_198" x1="72.5" y1="475" x2="72.5" y2="786.381" gradientUnits="userSpaceOnUse">
<stop stop-color="#F7DD43"/>
<stop offset="1" stop-color="#F7DD43" stop-opacity="0"/>
</linearGradient>
<linearGradient id="paint22_linear_175_198" x1="72.5" y1="475" x2="72.5" y2="786.381" gradientUnits="userSpaceOnUse">
<stop stop-color="#F7DD43"/>
<stop offset="1" stop-color="#F7DD43" stop-opacity="0"/>
</linearGradient>
<linearGradient id="paint23_linear_175_198" x1="72.5" y1="475" x2="72.5" y2="786.381" gradientUnits="userSpaceOnUse">
<stop stop-color="#F7DD43"/>
<stop offset="1" stop-color="#F7DD43" stop-opacity="0"/>
</linearGradient>
<linearGradient id="paint24_linear_175_198" x1="72.5" y1="475" x2="72.5" y2="786.381" gradientUnits="userSpaceOnUse">
<stop stop-color="#F7DD43"/>
<stop offset="1" stop-color="#F7DD43" stop-opacity="0"/>
</linearGradient>
<linearGradient id="paint25_linear_175_198" x1="72.5" y1="475" x2="72.5" y2="786.381" gradientUnits="userSpaceOnUse">
<stop stop-color="#F7DD43"/>
<stop offset="1" stop-color="#F7DD43" stop-opacity="0"/>
</linearGradient>
<linearGradient id="paint26_linear_175_198" x1="72.5" y1="475" x2="72.5" y2="786.381" gradientUnits="userSpaceOnUse">
<stop stop-color="#F7DD43"/>
<stop offset="1" stop-color="#F7DD43" stop-opacity="0"/>
</linearGradient>
<linearGradient id="paint27_linear_175_198" x1="72.5" y1="475" x2="72.5" y2="786.381" gradientUnits="userSpaceOnUse">
<stop stop-color="#F7DD43"/>
<stop offset="1" stop-color="#F7DD43" stop-opacity="0"/>
</linearGradient>
<linearGradient id="paint28_linear_175_198" x1="72.5" y1="475" x2="72.5" y2="786.381" gradientUnits="userSpaceOnUse">
<stop stop-color="#F7DD43"/>
<stop offset="1" stop-color="#F7DD43" stop-opacity="0"/>
</linearGradient>
<linearGradient id="paint29_linear_175_198" x1="72.5" y1="475" x2="72.5" y2="786.381" gradientUnits="userSpaceOnUse">
<stop stop-color="#F7DD43"/>
<stop offset="1" stop-color="#F7DD43" stop-opacity="0"/>
</linearGradient>
<linearGradient id="paint30_linear_175_198" x1="72.5" y1="475" x2="72.5" y2="786.381" gradientUnits="userSpaceOnUse">
<stop stop-color="#F7DD43"/>
<stop offset="1" stop-color="#F7DD43" stop-opacity="0"/>
</linearGradient>
<linearGradient id="paint31_linear_175_198" x1="72.5" y1="475" x2="72.5" y2="786.381" gradientUnits="userSpaceOnUse">
<stop stop-color="#F7DD43"/>
<stop offset="1" stop-color="#F7DD43" stop-opacity="0"/>
</linearGradient>
<linearGradient id="paint32_linear_175_198" x1="72.5" y1="475" x2="72.5" y2="786.381" gradientUnits="userSpaceOnUse">
<stop stop-color="#F7DD43"/>
<stop offset="1" stop-color="#F7DD43" stop-opacity="0"/>
</linearGradient>
<linearGradient id="paint33_linear_175_198" x1="72.5" y1="475" x2="72.5" y2="786.381" gradientUnits="userSpaceOnUse">
<stop stop-color="#F7DD43"/>
<stop offset="1" stop-color="#F7DD43" stop-opacity="0"/>
</linearGradient>
<linearGradient id="paint34_linear_175_198" x1="72.5" y1="475" x2="72.5" y2="786.381" gradientUnits="userSpaceOnUse">
<stop stop-color="#F7DD43"/>
<stop offset="1" stop-color="#F7DD43" stop-opacity="0"/>
</linearGradient>
<linearGradient id="paint35_linear_175_198" x1="72.5" y1="475" x2="72.5" y2="786.381" gradientUnits="userSpaceOnUse">
<stop stop-color="#F7DD43"/>
<stop offset="1" stop-color="#F7DD43" stop-opacity="0"/>
</linearGradient>
<linearGradient id="paint36_linear_175_198" x1="72.5" y1="475" x2="72.5" y2="786.381" gradientUnits="userSpaceOnUse">
<stop stop-color="#F7DD43"/>
<stop offset="1" stop-color="#F7DD43" stop-opacity="0"/>
</linearGradient>
<linearGradient id="paint37_linear_175_198" x1="72.5" y1="475" x2="72.5" y2="786.381" gradientUnits="userSpaceOnUse">
<stop stop-color="#F7DD43"/>
<stop offset="1" stop-color="#F7DD43" stop-opacity="0"/>
</linearGradient>
<linearGradient id="paint38_linear_175_198" x1="72.5" y1="475" x2="72.5" y2="786.381" gradientUnits="userSpaceOnUse">
<stop stop-color="#F7DD43"/>
<stop offset="1" stop-color="#F7DD43" stop-opacity="0"/>
</linearGradient>
<linearGradient id="paint39_linear_175_198" x1="72.5" y1="475" x2="72.5" y2="786.381" gradientUnits="userSpaceOnUse">
<stop stop-color="#F7DD43"/>
<stop offset="1" stop-color="#F7DD43" stop-opacity="0"/>
</linearGradient>
<linearGradient id="paint40_linear_175_198" x1="72.5" y1="475" x2="72.5" y2="786.381" gradientUnits="userSpaceOnUse">
<stop stop-color="#F7DD43"/>
<stop offset="1" stop-color="#F7DD43" stop-opacity="0"/>
</linearGradient>
<linearGradient id="paint41_linear_175_198" x1="72.5" y1="475" x2="72.5" y2="786.381" gradientUnits="userSpaceOnUse">
<stop stop-color="#F7DD43"/>
<stop offset="1" stop-color="#F7DD43" stop-opacity="0"/>
</linearGradient>
<linearGradient id="paint42_linear_175_198" x1="72.5" y1="475" x2="72.5" y2="786.381" gradientUnits="userSpaceOnUse">
<stop stop-color="#F7DD43"/>
<stop offset="1" stop-color="#F7DD43" stop-opacity="0"/>
</linearGradient>
<linearGradient id="paint43_linear_175_198" x1="72.5" y1="475" x2="72.5" y2="786.381" gradientUnits="userSpaceOnUse">
<stop stop-color="#F7DD43"/>
<stop offset="1" stop-color="#F7DD43" stop-opacity="0"/>
</linearGradient>
<linearGradient id="paint44_linear_175_198" x1="72.5" y1="475" x2="72.5" y2="786.381" gradientUnits="userSpaceOnUse">
<stop stop-color="#F7DD43"/>
<stop offset="1" stop-color="#F7DD43" stop-opacity="0"/>
</linearGradient>
<linearGradient id="paint45_linear_175_198" x1="72.5" y1="475" x2="72.5" y2="786.381" gradientUnits="userSpaceOnUse">
<stop stop-color="#F7DD43"/>
<stop offset="1" stop-color="#F7DD43" stop-opacity="0"/>
</linearGradient>
<linearGradient id="paint46_linear_175_198" x1="72.5" y1="475" x2="72.5" y2="786.381" gradientUnits="userSpaceOnUse">
<stop stop-color="#F7DD43"/>
<stop offset="1" stop-color="#F7DD43" stop-opacity="0"/>
</linearGradient>
<linearGradient id="paint47_linear_175_198" x1="958.5" y1="175" x2="958.5" y2="473.818" gradientUnits="userSpaceOnUse">
<stop stop-color="#F7DD43"/>
<stop offset="1" stop-color="#F7DD43" stop-opacity="0"/>
</linearGradient>
<linearGradient id="paint48_linear_175_198" x1="958.5" y1="175" x2="958.5" y2="473.818" gradientUnits="userSpaceOnUse">
<stop stop-color="#F7DD43"/>
<stop offset="1" stop-color="#F7DD43" stop-opacity="0"/>
</linearGradient>
<linearGradient id="paint49_linear_175_198" x1="958.5" y1="175" x2="958.5" y2="473.818" gradientUnits="userSpaceOnUse">
<stop stop-color="#F7DD43"/>
<stop offset="1" stop-color="#F7DD43" stop-opacity="0"/>
</linearGradient>
<linearGradient id="paint50_linear_175_198" x1="958.5" y1="175" x2="958.5" y2="473.818" gradientUnits="userSpaceOnUse">
<stop stop-color="#F7DD43"/>
<stop offset="1" stop-color="#F7DD43" stop-opacity="0"/>
</linearGradient>
<linearGradient id="paint51_linear_175_198" x1="958.5" y1="175" x2="958.5" y2="473.818" gradientUnits="userSpaceOnUse">
<stop stop-color="#F7DD43"/>
<stop offset="1" stop-color="#F7DD43" stop-opacity="0"/>
</linearGradient>
<linearGradient id="paint52_linear_175_198" x1="958.5" y1="175" x2="958.5" y2="473.818" gradientUnits="userSpaceOnUse">
<stop stop-color="#F7DD43"/>
<stop offset="1" stop-color="#F7DD43" stop-opacity="0"/>
</linearGradient>
<linearGradient id="paint53_linear_175_198" x1="958.5" y1="175" x2="958.5" y2="473.818" gradientUnits="userSpaceOnUse">
<stop stop-color="#F7DD43"/>
<stop offset="1" stop-color="#F7DD43" stop-opacity="0"/>
</linearGradient>
<linearGradient id="paint54_linear_175_198" x1="958.5" y1="175" x2="958.5" y2="473.818" gradientUnits="userSpaceOnUse">
<stop stop-color="#F7DD43"/>
<stop offset="1" stop-color="#F7DD43" stop-opacity="0"/>
</linearGradient>
<linearGradient id="paint55_linear_175_198" x1="958.5" y1="175" x2="958.5" y2="473.818" gradientUnits="userSpaceOnUse">
<stop stop-color="#F7DD43"/>
<stop offset="1" stop-color="#F7DD43" stop-opacity="0"/>
</linearGradient>
<linearGradient id="paint56_linear_175_198" x1="958.5" y1="175" x2="958.5" y2="473.818" gradientUnits="userSpaceOnUse">
<stop stop-color="#F7DD43"/>
<stop offset="1" stop-color="#F7DD43" stop-opacity="0"/>
</linearGradient>
<linearGradient id="paint57_linear_175_198" x1="958.5" y1="175" x2="958.5" y2="473.818" gradientUnits="userSpaceOnUse">
<stop stop-color="#F7DD43"/>
<stop offset="1" stop-color="#F7DD43" stop-opacity="0"/>
</linearGradient>
<linearGradient id="paint58_linear_175_198" x1="958.5" y1="175" x2="958.5" y2="473.818" gradientUnits="userSpaceOnUse">
<stop stop-color="#F7DD43"/>
<stop offset="1" stop-color="#F7DD43" stop-opacity="0"/>
</linearGradient>
<linearGradient id="paint59_linear_175_198" x1="958.5" y1="175" x2="958.5" y2="473.818" gradientUnits="userSpaceOnUse">
<stop stop-color="#F7DD43"/>
<stop offset="1" stop-color="#F7DD43" stop-opacity="0"/>
</linearGradient>
<linearGradient id="paint60_linear_175_198" x1="958.5" y1="175" x2="958.5" y2="473.818" gradientUnits="userSpaceOnUse">
<stop stop-color="#F7DD43"/>
<stop offset="1" stop-color="#F7DD43" stop-opacity="0"/>
</linearGradient>
<linearGradient id="paint61_linear_175_198" x1="958.5" y1="175" x2="958.5" y2="473.818" gradientUnits="userSpaceOnUse">
<stop stop-color="#F7DD43"/>
<stop offset="1" stop-color="#F7DD43" stop-opacity="0"/>
</linearGradient>
<linearGradient id="paint62_linear_175_198" x1="958.5" y1="175" x2="958.5" y2="473.818" gradientUnits="userSpaceOnUse">
<stop stop-color="#F7DD43"/>
<stop offset="1" stop-color="#F7DD43" stop-opacity="0"/>
</linearGradient>
<linearGradient id="paint63_linear_175_198" x1="958.5" y1="175" x2="958.5" y2="473.818" gradientUnits="userSpaceOnUse">
<stop stop-color="#F7DD43"/>
<stop offset="1" stop-color="#F7DD43" stop-opacity="0"/>
</linearGradient>
<linearGradient id="paint64_linear_175_198" x1="958.5" y1="175" x2="958.5" y2="473.818" gradientUnits="userSpaceOnUse">
<stop stop-color="#F7DD43"/>
<stop offset="1" stop-color="#F7DD43" stop-opacity="0"/>
</linearGradient>
<linearGradient id="paint65_linear_175_198" x1="958.5" y1="175" x2="958.5" y2="473.818" gradientUnits="userSpaceOnUse">
<stop stop-color="#F7DD43"/>
<stop offset="1" stop-color="#F7DD43" stop-opacity="0"/>
</linearGradient>
<linearGradient id="paint66_linear_175_198" x1="958.5" y1="175" x2="958.5" y2="473.818" gradientUnits="userSpaceOnUse">
<stop stop-color="#F7DD43"/>
<stop offset="1" stop-color="#F7DD43" stop-opacity="0"/>
</linearGradient>
<linearGradient id="paint67_linear_175_198" x1="958.5" y1="175" x2="958.5" y2="473.818" gradientUnits="userSpaceOnUse">
<stop stop-color="#F7DD43"/>
<stop offset="1" stop-color="#F7DD43" stop-opacity="0"/>
</linearGradient>
<linearGradient id="paint68_linear_175_198" x1="958.5" y1="175" x2="958.5" y2="473.818" gradientUnits="userSpaceOnUse">
<stop stop-color="#F7DD43"/>
<stop offset="1" stop-color="#F7DD43" stop-opacity="0"/>
</linearGradient>
<linearGradient id="paint69_linear_175_198" x1="958.5" y1="175" x2="958.5" y2="473.818" gradientUnits="userSpaceOnUse">
<stop stop-color="#F7DD43"/>
<stop offset="1" stop-color="#F7DD43" stop-opacity="0"/>
</linearGradient>
<linearGradient id="paint70_linear_175_198" x1="958.5" y1="175" x2="958.5" y2="473.818" gradientUnits="userSpaceOnUse">
<stop stop-color="#F7DD43"/>
<stop offset="1" stop-color="#F7DD43" stop-opacity="0"/>
</linearGradient>
<linearGradient id="paint71_linear_175_198" x1="958.5" y1="175" x2="958.5" y2="473.818" gradientUnits="userSpaceOnUse">
<stop stop-color="#F7DD43"/>
<stop offset="1" stop-color="#F7DD43" stop-opacity="0"/>
</linearGradient>
<linearGradient id="paint72_linear_175_198" x1="958.5" y1="175" x2="958.5" y2="473.818" gradientUnits="userSpaceOnUse">
<stop stop-color="#F7DD43"/>
<stop offset="1" stop-color="#F7DD43" stop-opacity="0"/>
</linearGradient>
<linearGradient id="paint73_linear_175_198" x1="958.5" y1="175" x2="958.5" y2="473.818" gradientUnits="userSpaceOnUse">
<stop stop-color="#F7DD43"/>
<stop offset="1" stop-color="#F7DD43" stop-opacity="0"/>
</linearGradient>
<linearGradient id="paint74_linear_175_198" x1="958.5" y1="175" x2="958.5" y2="473.818" gradientUnits="userSpaceOnUse">
<stop stop-color="#F7DD43"/>
<stop offset="1" stop-color="#F7DD43" stop-opacity="0"/>
</linearGradient>
<linearGradient id="paint75_linear_175_198" x1="958.5" y1="175" x2="958.5" y2="473.818" gradientUnits="userSpaceOnUse">
<stop stop-color="#F7DD43"/>
<stop offset="1" stop-color="#F7DD43" stop-opacity="0"/>
</linearGradient>
<linearGradient id="paint76_linear_175_198" x1="958.5" y1="175" x2="958.5" y2="473.818" gradientUnits="userSpaceOnUse">
<stop stop-color="#F7DD43"/>
<stop offset="1" stop-color="#F7DD43" stop-opacity="0"/>
</linearGradient>
<linearGradient id="paint77_linear_175_198" x1="958.5" y1="175" x2="958.5" y2="473.818" gradientUnits="userSpaceOnUse">
<stop stop-color="#F7DD43"/>
<stop offset="1" stop-color="#F7DD43" stop-opacity="0"/>
</linearGradient>
<linearGradient id="paint78_linear_175_198" x1="958.5" y1="175" x2="958.5" y2="473.818" gradientUnits="userSpaceOnUse">
<stop stop-color="#F7DD43"/>
<stop offset="1" stop-color="#F7DD43" stop-opacity="0"/>
</linearGradient>
<linearGradient id="paint79_linear_175_198" x1="958.5" y1="175" x2="958.5" y2="473.818" gradientUnits="userSpaceOnUse">
<stop stop-color="#F7DD43"/>
<stop offset="1" stop-color="#F7DD43" stop-opacity="0"/>
</linearGradient>
<linearGradient id="paint80_linear_175_198" x1="958.5" y1="175" x2="958.5" y2="473.818" gradientUnits="userSpaceOnUse">
<stop stop-color="#F7DD43"/>
<stop offset="1" stop-color="#F7DD43" stop-opacity="0"/>
</linearGradient>
<linearGradient id="paint81_linear_175_198" x1="958.5" y1="175" x2="958.5" y2="473.818" gradientUnits="userSpaceOnUse">
<stop stop-color="#F7DD43"/>
<stop offset="1" stop-color="#F7DD43" stop-opacity="0"/>
</linearGradient>
<linearGradient id="paint82_linear_175_198" x1="958.5" y1="175" x2="958.5" y2="473.818" gradientUnits="userSpaceOnUse">
<stop stop-color="#F7DD43"/>
<stop offset="1" stop-color="#F7DD43" stop-opacity="0"/>
</linearGradient>
<linearGradient id="paint83_linear_175_198" x1="958.5" y1="175" x2="958.5" y2="473.818" gradientUnits="userSpaceOnUse">
<stop stop-color="#F7DD43"/>
<stop offset="1" stop-color="#F7DD43" stop-opacity="0"/>
</linearGradient>
<linearGradient id="paint84_linear_175_198" x1="958.5" y1="175" x2="958.5" y2="473.818" gradientUnits="userSpaceOnUse">
<stop stop-color="#F7DD43"/>
<stop offset="1" stop-color="#F7DD43" stop-opacity="0"/>
</linearGradient>
<linearGradient id="paint85_linear_175_198" x1="958.5" y1="175" x2="958.5" y2="473.818" gradientUnits="userSpaceOnUse">
<stop stop-color="#F7DD43"/>
<stop offset="1" stop-color="#F7DD43" stop-opacity="0"/>
</linearGradient>
<linearGradient id="paint86_linear_175_198" x1="958.5" y1="175" x2="958.5" y2="473.818" gradientUnits="userSpaceOnUse">
<stop stop-color="#F7DD43"/>
<stop offset="1" stop-color="#F7DD43" stop-opacity="0"/>
</linearGradient>
<linearGradient id="paint87_linear_175_198" x1="958.5" y1="175" x2="958.5" y2="473.818" gradientUnits="userSpaceOnUse">
<stop stop-color="#F7DD43"/>
<stop offset="1" stop-color="#F7DD43" stop-opacity="0"/>
</linearGradient>
<linearGradient id="paint88_linear_175_198" x1="958.5" y1="175" x2="958.5" y2="473.818" gradientUnits="userSpaceOnUse">
<stop stop-color="#F7DD43"/>
<stop offset="1" stop-color="#F7DD43" stop-opacity="0"/>
</linearGradient>
<linearGradient id="paint89_linear_175_198" x1="958.5" y1="175" x2="958.5" y2="473.818" gradientUnits="userSpaceOnUse">
<stop stop-color="#F7DD43"/>
<stop offset="1" stop-color="#F7DD43" stop-opacity="0"/>
</linearGradient>
<linearGradient id="paint90_linear_175_198" x1="958.5" y1="175" x2="958.5" y2="473.818" gradientUnits="userSpaceOnUse">
<stop stop-color="#F7DD43"/>
<stop offset="1" stop-color="#F7DD43" stop-opacity="0"/>
</linearGradient>
<linearGradient id="paint91_linear_175_198" x1="958.5" y1="175" x2="958.5" y2="473.818" gradientUnits="userSpaceOnUse">
<stop stop-color="#F7DD43"/>
<stop offset="1" stop-color="#F7DD43" stop-opacity="0"/>
</linearGradient>
<linearGradient id="paint92_linear_175_198" x1="958.5" y1="175" x2="958.5" y2="473.818" gradientUnits="userSpaceOnUse">
<stop stop-color="#F7DD43"/>
<stop offset="1" stop-color="#F7DD43" stop-opacity="0"/>
</linearGradient>
<linearGradient id="paint93_linear_175_198" x1="958.5" y1="175" x2="958.5" y2="473.818" gradientUnits="userSpaceOnUse">
<stop stop-color="#F7DD43"/>
<stop offset="1" stop-color="#F7DD43" stop-opacity="0"/>
</linearGradient>
</defs>
</svg>
